999
dxflib 2.0.4.8
  0
SECTION
  2
HEADER
  9
$ACADVER
  1
AC1015
  9
$HANDSEED
  5
FFFF
  9
$DIMASZ
 40
2.5
  9
$DIMGAP
 40
0.625
  9
$DIMEXO
 40
0.625
  9
$INSUNITS
 70
4
  9
$DIMTXT
 40
2.5
  9
$DIMSTYLE
  2
Standard
  9
$PLIMMAX
 10
210.0
 20
297.0
  9
$PLIMMIN
 10
0.0
 20
0.0
  9
$DIMEXE
 40
1.25
  0
ENDSEC
  0
SECTION
  2
TABLES
  0
TABLE
  2
VPORT
  5
8
100
AcDbSymbolTable
 70
1
  0
VPORT
  5
30
100
AcDbSymbolTableRecord
100
AcDbViewportTableRecord
  2
*Active
 70
0
 10
0.0
 20
0.0
 11
1.0
 21
1.0
 12
286.3055555555554861
 22
148.5
 13
0.0
 23
0.0
 14
10.0
 24
10.0
 15
10.0
 25
10.0
 16
0.0
 26
0.0
 36
1.0
 17
0.0
 27
0.0
 37
0.0
 40
297.0
 41
1.92798353909465
 42
50.0
 43
0.0
 44
0.0
 50
0.0
 51
0.0
 71
0
 72
100
 73
1
 74
3
 75
1
 76
1
 77
0
 78
0
281
0
 65
1
110
0.0
120
0.0
130
0.0
111
1.0
121
0.0
131
0.0
112
0.0
122
1.0
132
0.0
 79
0
146
0.0
  0
ENDTAB
  0
TABLE
  2
LTYPE
  5
5
100
AcDbSymbolTable
 70
21
  0
LTYPE
  5
14
100
AcDbSymbolTableRecord
100
AcDbLinetypeTableRecord
  2
ByBlock
 70
0
  3

 72
65
 73
0
 40
0.0
  0
LTYPE
  5
15
100
AcDbSymbolTableRecord
100
AcDbLinetypeTableRecord
  2
ByLayer
 70
0
  3

 72
65
 73
0
 40
0.0
  0
LTYPE
  5
16
100
AcDbSymbolTableRecord
100
AcDbLinetypeTableRecord
  2
CONTINUOUS
 70
0
  3
Solid line
 72
65
 73
0
 40
0.0
  0
LTYPE
  5
31
100
AcDbSymbolTableRecord
100
AcDbLinetypeTableRecord
  2
DOT
 70
0
  3
Dot . . . . . . . . . . . . . . . . . . . . . .
 72
65
 73
2
 40
6.3499999999999996
 49
0.0
 74
0
 49
-6.3499999999999996
 74
0
  0
LTYPE
  5
32
100
AcDbSymbolTableRecord
100
AcDbLinetypeTableRecord
  2
DOT2
 70
0
  3
Dot (.5x) .....................................
 72
65
 73
2
 40
3.1749999999999998
 49
0.0
 74
0
 49
-3.1749999999999998
 74
0
  0
LTYPE
  5
33
100
AcDbSymbolTableRecord
100
AcDbLinetypeTableRecord
  2
DOTX2
 70
0
  3
Dot (2x) .  .  .  .  .  .  .  .  .  .  .  .  .
 72
65
 73
2
 40
12.6999999999999993
 49
0.0
 74
0
 49
-12.6999999999999993
 74
0
  0
LTYPE
  5
34
100
AcDbSymbolTableRecord
100
AcDbLinetypeTableRecord
  2
DASHED
 70
0
  3
Dashed __ __ __ __ __ __ __ __ __ __ __ __ __ _
 72
65
 73
2
 40
19.0500000000000007
 49
12.6999999999999993
 74
0
 49
-6.3499999999999996
 74
0
  0
LTYPE
  5
35
100
AcDbSymbolTableRecord
100
AcDbLinetypeTableRecord
  2
DASHED2
 70
0
  3
Dashed (.5x) _ _ _ _ _ _ _ _ _ _ _ _ _ _ _ _ _
 72
65
 73
2
 40
9.5250000000000004
 49
6.3499999999999996
 74
0
 49
-3.1749999999999998
 74
0
  0
LTYPE
  5
36
100
AcDbSymbolTableRecord
100
AcDbLinetypeTableRecord
  2
DASHEDX2
 70
0
  3
Dashed (2x) ____  ____  ____  ____  ____  ___
 72
65
 73
2
 40
38.1000000000000014
 49
25.3999999999999986
 74
0
 49
-12.6999999999999993
 74
0
  0
LTYPE
  5
37
100
AcDbSymbolTableRecord
100
AcDbLinetypeTableRecord
  2
DASHDOT
 70
0
  3
Dash dot __ . __ . __ . __ . __ . __ . __ . __
 72
65
 73
4
 40
25.3999999999999986
 49
12.6999999999999993
 74
0
 49
-6.3499999999999996
 74
0
 49
0.0
 74
0
 49
-6.3499999999999996
 74
0
  0
LTYPE
  5
38
100
AcDbSymbolTableRecord
100
AcDbLinetypeTableRecord
  2
DASHDOT2
 70
0
  3
Dash dot (.5x) _._._._._._._._._._._._._._._.
 72
65
 73
4
 40
12.6999999999999993
 49
6.3499999999999996
 74
0
 49
-3.1749999999999998
 74
0
 49
0.0
 74
0
 49
-3.1749999999999998
 74
0
  0
LTYPE
  5
39
100
AcDbSymbolTableRecord
100
AcDbLinetypeTableRecord
  2
DASHDOTX2
 70
0
  3
Dash dot (2x) ____  .  ____  .  ____  .  ___
 72
65
 73
4
 40
50.7999999999999972
 49
25.3999999999999986
 74
0
 49
-12.6999999999999993
 74
0
 49
0.0
 74
0
 49
-12.6999999999999993
 74
0
  0
LTYPE
  5
3A
100
AcDbSymbolTableRecord
100
AcDbLinetypeTableRecord
  2
DIVIDE
 70
0
  3
Divide ____ . . ____ . . ____ . . ____ . . ____
 72
65
 73
6
 40
31.75
 49
12.6999999999999993
 74
0
 49
-6.3499999999999996
 74
0
 49
0.0
 74
0
 49
-6.3499999999999996
 74
0
 49
0.0
 74
0
 49
-6.3499999999999996
 74
0
  0
LTYPE
  5
3B
100
AcDbSymbolTableRecord
100
AcDbLinetypeTableRecord
  2
DIVIDE2
 70
0
  3
Divide (.5x) __..__..__..__..__..__..__..__.._
 72
65
 73
6
 40
15.875
 49
6.3499999999999996
 74
0
 49
-3.1749999999999998
 74
0
 49
0.0
 74
0
 49
-3.1749999999999998
 74
0
 49
0.0
 74
0
 49
-3.1749999999999998
 74
0
  0
LTYPE
  5
3C
100
AcDbSymbolTableRecord
100
AcDbLinetypeTableRecord
  2
DIVIDEX2
 70
0
  3
Divide (2x) ________  .  .  ________  .  .  _
 72
65
 73
6
 40
63.5
 49
25.3999999999999986
 74
0
 49
-12.6999999999999993
 74
0
 49
0.0
 74
0
 49
-12.6999999999999993
 74
0
 49
0.0
 74
0
 49
-12.6999999999999993
 74
0
  0
LTYPE
  5
3D
100
AcDbSymbolTableRecord
100
AcDbLinetypeTableRecord
  2
CENTER
 70
0
  3
Center ____ _ ____ _ ____ _ ____ _ ____ _ ____
 72
65
 73
4
 40
50.7999999999999972
 49
31.75
 74
0
 49
-6.3499999999999996
 74
0
 49
6.3499999999999996
 74
0
 49
-6.3499999999999996
 74
0
  0
LTYPE
  5
3E
100
AcDbSymbolTableRecord
100
AcDbLinetypeTableRecord
  2
CENTER2
 70
0
  3
Center (.5x) ___ _ ___ _ ___ _ ___ _ ___ _ ___
 72
65
 73
4
 40
28.5749999999999993
 49
19.0500000000000007
 74
0
 49
-3.1749999999999998
 74
0
 49
3.1749999999999998
 74
0
 49
-3.1749999999999998
 74
0
  0
LTYPE
  5
3F
100
AcDbSymbolTableRecord
100
AcDbLinetypeTableRecord
  2
CENTERX2
 70
0
  3
Center (2x) ________  __  ________  __  _____
 72
65
 73
4
 40
101.5999999999999943
 49
63.5
 74
0
 49
-12.6999999999999993
 74
0
 49
12.6999999999999993
 74
0
 49
-12.6999999999999993
 74
0
  0
LTYPE
  5
40
100
AcDbSymbolTableRecord
100
AcDbLinetypeTableRecord
  2
BORDER
 70
0
  3
Border __ __ . __ __ . __ __ . __ __ . __ __ .
 72
65
 73
6
 40
44.4500000000000028
 49
12.6999999999999993
 74
0
 49
-6.3499999999999996
 74
0
 49
12.6999999999999993
 74
0
 49
-6.3499999999999996
 74
0
 49
0.0
 74
0
 49
-6.3499999999999996
 74
0
  0
LTYPE
  5
41
100
AcDbSymbolTableRecord
100
AcDbLinetypeTableRecord
  2
BORDER2
 70
0
  3
Border (.5x) __.__.__.__.__.__.__.__.__.__.__.
 72
65
 73
6
 40
22.2250000000000014
 49
6.3499999999999996
 74
0
 49
-3.1749999999999998
 74
0
 49
6.3499999999999996
 74
0
 49
-3.1749999999999998
 74
0
 49
0.0
 74
0
 49
-3.1749999999999998
 74
0
  0
LTYPE
  5
42
100
AcDbSymbolTableRecord
100
AcDbLinetypeTableRecord
  2
BORDERX2
 70
0
  3
Border (2x) ____  ____  .  ____  ____  .  ___
 72
65
 73
6
 40
88.9000000000000057
 49
25.3999999999999986
 74
0
 49
-12.6999999999999993
 74
0
 49
25.3999999999999986
 74
0
 49
-12.6999999999999993
 74
0
 49
0.0
 74
0
 49
-12.6999999999999993
 74
0
  0
ENDTAB
  0
TABLE
  2
LAYER
  5
2
100
AcDbSymbolTable
 70
21
  0
LAYER
  5
10
100
AcDbSymbolTableRecord
100
AcDbLayerTableRecord
  2
0
 70
1
 62
7
  6
CONTINUOUS
370
0
390
F
  0
LAYER
  5
43
100
AcDbSymbolTableRecord
100
AcDbLayerTableRecord
  2
big_hole
 70
1
 62
7
  6
CONTINUOUS
370
0
390
F
  0
LAYER
  5
44
100
AcDbSymbolTableRecord
100
AcDbLayerTableRecord
  2
axis0
 70
1
 62
7
  6
CONTINUOUS
370
0
390
F
  0
LAYER
  5
45
100
AcDbSymbolTableRecord
100
AcDbLayerTableRecord
  2
axis1
 70
1
 62
7
  6
CONTINUOUS
370
0
390
F
  0
LAYER
  5
46
100
AcDbSymbolTableRecord
100
AcDbLayerTableRecord
  2
axis2
 70
1
 62
7
  6
CONTINUOUS
370
0
390
F
  0
LAYER
  5
47
100
AcDbSymbolTableRecord
100
AcDbLayerTableRecord
  2
small_hole
 70
1
 62
7
  6
CONTINUOUS
370
0
390
F
  0
LAYER
  5
48
100
AcDbSymbolTableRecord
100
AcDbLayerTableRecord
  2
nuts_access3
 70
1
 62
7
  6
CONTINUOUS
370
0
390
F
  0
LAYER
  5
49
100
AcDbSymbolTableRecord
100
AcDbLayerTableRecord
  2
angle
 70
1
 62
7
  6
CONTINUOUS
370
0
390
F
  0
LAYER
  5
4A
100
AcDbSymbolTableRecord
100
AcDbLayerTableRecord
  2
nuts_access
 70
1
 62
7
  6
CONTINUOUS
370
0
390
F
  0
LAYER
  5
4B
100
AcDbSymbolTableRecord
100
AcDbLayerTableRecord
  2
axis3
 70
1
 62
7
  6
CONTINUOUS
370
0
390
F
  0
LAYER
  5
4C
100
AcDbSymbolTableRecord
100
AcDbLayerTableRecord
  2
axis4_m4
 70
1
 62
7
  6
CONTINUOUS
370
0
390
F
  0
LAYER
  5
4D
100
AcDbSymbolTableRecord
100
AcDbLayerTableRecord
  2
axis5_m4
 70
1
 62
7
  6
CONTINUOUS
370
0
390
F
  0
LAYER
  5
4E
100
AcDbSymbolTableRecord
100
AcDbLayerTableRecord
  2
axis6_m4
 70
1
 62
7
  6
CONTINUOUS
370
0
390
F
  0
LAYER
  5
4F
100
AcDbSymbolTableRecord
100
AcDbLayerTableRecord
  2
base
 70
0
 62
7
  6
CONTINUOUS
370
0
390
F
  0
LAYER
  5
50
100
AcDbSymbolTableRecord
100
AcDbLayerTableRecord
  2
image
 70
1
 62
7
  6
CONTINUOUS
370
0
390
F
  0
LAYER
  5
51
100
AcDbSymbolTableRecord
100
AcDbLayerTableRecord
  2
limit
 70
1
 62
7
  6
CONTINUOUS
370
0
390
F
  0
LAYER
  5
52
100
AcDbSymbolTableRecord
100
AcDbLayerTableRecord
  2
m5
 70
1
 62
7
  6
CONTINUOUS
370
0
390
F
  0
LAYER
  5
53
100
AcDbSymbolTableRecord
100
AcDbLayerTableRecord
  2
axis_m5
 70
1
 62
7
  6
CONTINUOUS
370
0
390
F
  0
LAYER
  5
54
100
AcDbSymbolTableRecord
100
AcDbLayerTableRecord
  2
turnhole
 70
1
 62
7
  6
CONTINUOUS
370
0
390
F
  0
LAYER
  5
55
100
AcDbSymbolTableRecord
100
AcDbLayerTableRecord
  2
attachement
 70
0
 62
7
  6
CONTINUOUS
370
0
390
F
  0
LAYER
  5
56
100
AcDbSymbolTableRecord
100
AcDbLayerTableRecord
  2
attachementm5
 70
0
 62
7
  6
CONTINUOUS
370
0
390
F
  0
ENDTAB
  0
TABLE
  2
STYLE
  5
3
100
AcDbSymbolTable
 70
1
  0
STYLE
  5
11
100
AcDbSymbolTableRecord
100
AcDbTextStyleTableRecord
  2
Standard
 70
0
 40
0.0
 41
0.75
 50
0.0
 71
0
 42
2.5
  3
txt
  4

  0
ENDTAB
  0
TABLE
  2
VIEW
  5
6
100
AcDbSymbolTable
 70
0
  0
ENDTAB
  0
TABLE
  2
UCS
  5
7
100
AcDbSymbolTable
 70
0
  0
ENDTAB
  0
TABLE
  2
APPID
  5
9
100
AcDbSymbolTable
 70
1
  0
APPID
  5
12
100
AcDbSymbolTableRecord
100
AcDbRegAppTableRecord
  2
ACAD
 70
0
  0
ENDTAB
  0
TABLE
  2
DIMSTYLE
  5
A
100
AcDbSymbolTable
 70
1
100
AcDbDimStyleTable
 71
0
  0
DIMSTYLE
105
27
100
AcDbSymbolTableRecord
100
AcDbDimStyleTableRecord
  2
Standard
 41
2.5
 42
0.625
 43
3.75
 44
1.25
 70
0
 73
0
 74
0
 77
1
 78
8
140
2.5
141
2.5
143
0.03937007874016
147
0.625
171
3
172
1
271
2
272
2
274
3
278
44
283
0
284
8
340
11
  0
ENDTAB
  0
TABLE
  2
BLOCK_RECORD
  5
1
100
AcDbSymbolTable
 70
1
  0
BLOCK_RECORD
  5
1F
100
AcDbSymbolTableRecord
100
AcDbBlockTableRecord
  2
*Model_Space
340
22
  0
BLOCK_RECORD
  5
1B
100
AcDbSymbolTableRecord
100
AcDbBlockTableRecord
  2
*Paper_Space
340
1E
  0
BLOCK_RECORD
  5
23
100
AcDbSymbolTableRecord
100
AcDbBlockTableRecord
  2
*Paper_Space0
340
26
  0
ENDTAB
  0
ENDSEC
  0
SECTION
  2
BLOCKS
  0
BLOCK
  5
20
100
AcDbEntity
  8
0
100
AcDbBlockBegin
  2
*Model_Space
 70
0
 10
0.0
 20
0.0
 30
0.0
  3
*Model_Space
  1

  0
ENDBLK
  5
21
100
AcDbEntity
  8
0
100
AcDbBlockEnd
  0
BLOCK
  5
1C
100
AcDbEntity
 67
1
  8
0
100
AcDbBlockBegin
  2
*Paper_Space
 70
0
 10
0.0
 20
0.0
 30
0.0
  3
*Paper_Space
  1

  0
ENDBLK
  5
1D
100
AcDbEntity
 67
1
  8
0
100
AcDbBlockEnd
  0
BLOCK
  5
24
100
AcDbEntity
  8
0
100
AcDbBlockBegin
  2
*Paper_Space0
 70
0
 10
0.0
 20
0.0
 30
0.0
  3
*Paper_Space0
  1

  0
ENDBLK
  5
25
100
AcDbEntity
  8
0
100
AcDbBlockEnd
  0
ENDSEC
  0
SECTION
  2
ENTITIES
  0
IMAGE
  5
57
  8
image
 62
256
370
-1
  6
ByLayer
100
AcDbEntity
100
AcDbRasterImage
 90
0
 10
-17.3909591452974333
 20
-97.9683298770009969
 30
0.0
 11
0.2584925264404348
 21
0.1678670094552266
 31
0.0
 12
-0.1678670094552266
 22
0.2584925264404347
 32
0.0
 13
480.0
 23
360.0
340
58
 70
15
280
0
281
50
282
50
283
0
  0
CIRCLE
  5
59
100
AcDbEntity
100
AcDbCircle
  8
big_hole
 62
256
370
-1
  6
ByLayer
 10
-16.3963535723243865
 20
25.2324199548767396
 30
0.0
 40
5.0
  0
CIRCLE
  5
5A
100
AcDbEntity
100
AcDbCircle
  8
big_hole
 62
256
370
-1
  6
ByLayer
 10
21.9012464276767744
 20
21.341219954876621
 30
0.0
 40
5.0
  0
CIRCLE
  5
5B
100
AcDbEntity
100
AcDbCircle
  8
axis0
 62
256
370
-1
  6
ByLayer
 10
-16.3963535723243865
 20
25.2324199548767396
 30
0.0
 40
3.0
  0
LINE
  5
5C
100
AcDbEntity
100
AcDbLine
  8
axis0
 62
256
370
-1
  6
ByLayer
 10
-21.2197121779935856
 20
25.2324199548767396
 30
0.0
 11
-11.1707535723252604
 21
25.2324199548767396
 31
0.0
  0
LINE
  5
5D
100
AcDbEntity
100
AcDbLine
  8
axis0
 62
256
370
-1
  6
ByLayer
 10
-16.3963535723243865
 20
29.2436199548750722
 30
0.0
 11
-16.3963535723243865
 21
21.2436199548750722
 31
0.0
  0
CIRCLE
  5
5E
100
AcDbEntity
100
AcDbCircle
  8
axis1
 62
256
370
-1
  6
ByLayer
 10
21.9012464276767744
 20
21.3300199548782885
 30
0.0
 40
3.0
  0
LINE
  5
5F
100
AcDbEntity
100
AcDbLine
  8
axis1
 62
256
370
-1
  6
ByLayer
 10
17.0778878220075754
 20
21.3300199548782885
 30
0.0
 11
27.1268464276758934
 21
21.3300199548782885
 31
0.0
  0
LINE
  5
60
100
AcDbEntity
100
AcDbLine
  8
axis1
 62
256
370
-1
  6
ByLayer
 10
21.9012464276767744
 20
25.341219954876621
 30
0.0
 11
21.9012464276767744
 21
17.341219954876621
 31
0.0
  0
CIRCLE
  5
61
100
AcDbEntity
100
AcDbCircle
  8
small_hole
 62
256
370
-1
  6
ByLayer
 10
-16.3963535723243865
 20
25.2324199548767396
 30
0.0
 40
3.0
  0
CIRCLE
  5
62
100
AcDbEntity
100
AcDbCircle
  8
small_hole
 62
256
370
-1
  6
ByLayer
 10
21.9012464276767744
 20
21.3300199548782885
 30
0.0
 40
3.0
  0
ARC
  5
63
100
AcDbEntity
  8
nuts_access3
 62
256
370
-1
  6
ByLayer
100
AcDbCircle
 10
-45.1707535723252604
 20
-29.7563800451249278
 30
0.0
 40
0.0
100
AcDbArc
 50
0.0
 51
0.0
  0
LINE
  5
64
100
AcDbEntity
100
AcDbLine
  8
angle
 62
256
370
-1
  6
ByLayer
 10
21.9012464276767744
 20
21.3300199548782885
 30
0.0
 11
0.0
 21
0.0000000000000036
 31
0.0
  0
LINE
  5
65
100
AcDbEntity
100
AcDbLine
  8
angle
 62
256
370
-1
  6
ByLayer
 10
0.0
 20
0.0000000000000036
 30
0.0
 11
2.1892464276761814
 21
-27.8475800451232018
 31
0.0
  0
LINE
  5
66
100
AcDbEntity
100
AcDbLine
  8
angle
 62
256
370
-1
  6
ByLayer
 10
-16.3963535723243865
 20
25.2324199548767396
 30
0.0
 11
0.0
 21
0.0000000000000036
 31
0.0
  0
DIMENSION
  5
67
100
AcDbEntity
  8
angle
 62
256
370
-1
  6
ByLayer
100
AcDbDimension
 10
-16.3963535723243865
 20
25.2324199548767396
 30
0.0
 11
-45.1707535723252604
 21
-29.7563800451249278
 31
0.0
 70
2
 71
5
 72
0
 41
1.0
 42
0.0
  1

  3
Standard
100
AcDb2LineAngularDimension
 13
0.0
 23
0.0000000000000036
 33
0.0
 14
21.9012464276767744
 24
21.3300199548782885
 34
0.0
 15
0.0
 25
0.0000000000000036
 35
0.0
 16
21.9012464276767744
 26
21.3300199548782885
 36
0.0
  0
DIMENSION
  5
68
100
AcDbEntity
  8
angle
 62
256
370
-1
  6
ByLayer
100
AcDbDimension
 10
21.9012464276767744
 20
21.3300199548782885
 30
0.0
 11
-45.1707535723252604
 21
-29.7563800451249278
 31
0.0
 70
2
 71
5
 72
0
 41
1.0
 42
0.0
  1

  3
Standard
100
AcDb2LineAngularDimension
 13
0.0
 23
0.0000000000000036
 33
0.0
 14
2.1892464276761814
 24
-27.8475800451232018
 34
0.0
 15
0.0
 25
0.0000000000000036
 35
0.0
 16
16.3313820514071324
 26
-19.7563800451249278
 36
0.0
  0
DIMENSION
  5
69
100
AcDbEntity
  8
angle
 62
256
370
-1
  6
ByLayer
100
AcDbDimension
 10
16.3313820514071324
 20
-31.5795705022531727
 30
0.0
 11
2.1892464276761743
 21
-29.7045705022531727
 31
0.0
 70
0
 71
5
 72
0
 41
1.0
 42
0.0
  1

  3
Standard
100
AcDbAlignedDimension
 13
-11.9528891960547696
 23
-29.7563800451249278
 33
0.0
 14
16.3313820514071324
 24
-29.7563800451249278
 34
0.0
 50
0.0
100
AcDbRotatedDimension
  0
LINE
  5
6A
100
AcDbEntity
100
AcDbLine
  8
nuts_access3
 62
256
370
-1
  6
ByLayer
 10
-2.8107535723238186
 20
-29.7563800451249278
 30
0.0
 11
7.1892464276761814
 21
-29.7563800451249278
 31
0.0
  0
LINE
  5
6B
100
AcDbEntity
100
AcDbLine
  8
nuts_access3
 62
256
370
-1
  6
ByLayer
 10
7.1892464276761814
 20
-29.7563800451249278
 30
0.0
 11
7.1892464276761814
 21
-19.7563800451249278
 31
0.0
  0
LINE
  5
6C
100
AcDbEntity
100
AcDbLine
  8
nuts_access3
 62
256
370
-1
  6
ByLayer
 10
-2.8107535723238186
 20
-29.7563800451249278
 30
0.0
 11
-2.8107535723238186
 21
-19.7563800451249278
 31
0.0
  0
ARC
  5
6D
100
AcDbEntity
  8
nuts_access3
 62
256
370
-1
  6
ByLayer
100
AcDbCircle
 10
2.1892464276761814
 20
-19.7563800451249278
 30
0.0
 40
5.0
100
AcDbArc
 50
0.0
 51
180.0
  0
CIRCLE
  5
6E
100
AcDbEntity
100
AcDbCircle
  8
axis3
 62
256
370
-1
  6
ByLayer
 10
0.0
 20
0.0000000000000036
 30
0.0
 40
3.6184840958361733
  0
LINE
  5
6F
100
AcDbEntity
100
AcDbLine
  8
axis3
 62
256
370
-1
  6
ByLayer
 10
5.1173092835628609
 20
-5.1173092835628573
 30
0.0
 11
-5.1173092835628609
 21
5.1173092835628609
 31
0.0
  0
LINE
  5
70
100
AcDbEntity
100
AcDbLine
  8
axis3
 62
256
370
-1
  6
ByLayer
 10
-5.1173092835628609
 20
-5.1173092835628573
 30
0.0
 11
5.1173092835628609
 21
5.117309283562868
 31
0.0
  0
CIRCLE
  5
71
100
AcDbEntity
100
AcDbCircle
  8
base
 62
256
370
-1
  6
ByLayer
 10
0.0
 20
0.0000000000000036
 30
0.0
 40
40.0
  0
CIRCLE
  5
72
100
AcDbEntity
100
AcDbCircle
  8
axis4_m4
 62
256
370
-1
  6
ByLayer
 10
-18.7141550676582042
 20
-9.5278748996637646
 30
0.0
 40
2.4172032119148934
  0
LINE
  5
73
100
AcDbEntity
100
AcDbLine
  8
axis4_m4
 62
256
370
-1
  6
ByLayer
 10
-14.5437056446225448
 20
-7.4045879954780887
 30
0.0
 11
-22.9224890732913273
 21
-11.5750486989823997
 31
0.0
  0
LINE
  5
74
100
AcDbEntity
100
AcDbLine
  8
axis4_m4
 62
256
370
-1
  6
ByLayer
 10
-20.8183277107090916
 20
-5.3004266328958636
 30
0.0
 11
-16.6478670072047805
 21
-13.679210061564639
 31
0.0
  0
CIRCLE
  5
75
100
AcDbEntity
100
AcDbCircle
  8
axis5_m4
 62
256
370
-1
  6
ByLayer
 10
1.1056958266401935
 20
20.9708711487851787
 30
0.0
 40
2.4172032119148934
  0
LINE
  5
76
100
AcDbEntity
100
AcDbLine
  8
axis5_m4
 62
256
370
-1
  6
ByLayer
 10
0.8592915136699588
 20
16.297512551145303
 30
0.0
 11
1.4369583132849044
 21
25.6389822049327094
 31
0.0
  0
LINE
  5
77
100
AcDbEntity
100
AcDbLine
  8
axis5_m4
 62
256
370
-1
  6
ByLayer
 10
5.8188597403711313
 20
20.6794139782315369
 30
0.0
 11
-3.5226099134162752
 21
21.2570807778464683
 31
0.0
  0
CIRCLE
  5
78
100
AcDbEntity
100
AcDbCircle
  8
axis6_m4
 62
256
370
-1
  6
ByLayer
 10
17.608459241018025
 20
-11.4429962491214141
 30
0.0
 40
2.4172032119148934
  0
LINE
  5
79
100
AcDbEntity
100
AcDbLine
  8
axis6_m4
 62
256
370
-1
  6
ByLayer
 10
13.6844141309525966
 20
-8.8929245556672072
 30
0.0
 11
21.4855307600064478
 21
-14.0639335059503008
 31
0.0
  0
LINE
  5
7A
100
AcDbEntity
100
AcDbLine
  8
axis6_m4
 62
256
370
-1
  6
ByLayer
 10
14.9994679703379745
 20
-15.3789873453356787
 30
0.0
 11
20.1704769206210486
 21
-7.5778707162818435
 31
0.0
  0
LINE
  5
7B
100
AcDbEntity
100
AcDbLine
  8
nuts_access
 62
256
370
-1
  6
ByLayer
 10
-7.1707535723252604
 20
-29.7563800451249243
 30
0.0
 11
-7.1707535723252604
 21
-19.3843808134347952
 31
0.0
  0
LINE
  5
7C
100
AcDbEntity
100
AcDbLine
  8
nuts_access
 62
256
370
-1
  6
ByLayer
 10
11.5492464276775948
 20
-29.7563800451249278
 30
0.0
 11
11.5492464276776019
 21
-19.3843808134348023
 31
0.0
  0
LINE
  5
7D
100
AcDbEntity
100
AcDbLine
  8
nuts_access
 62
256
370
-1
  6
ByLayer
 10
-7.1707535723252604
 20
-29.7563800451249243
 30
0.0
 11
11.5492464276775948
 21
-29.7563800451249278
 31
0.0
  0
ARC
  5
7E
100
AcDbEntity
  8
nuts_access
 62
256
370
-1
  6
ByLayer
100
AcDbCircle
 10
2.1892464276761814
 20
-14.7563800451249278
 30
0.0
 40
7.5
100
AcDbArc
 50
16.9168510636569493
 51
163.0831489363373237
  0
LINE
  5
7F
100
AcDbEntity
100
AcDbLine
  8
nuts_access
 62
256
370
-1
  6
ByLayer
 10
-7.1707535723252604
 20
-19.3843808134347952
 30
0.0
 11
-4.9862139117736888
 21
-12.5740031489445485
 31
0.0
  0
LINE
  5
80
100
AcDbEntity
100
AcDbLine
  8
nuts_access
 62
256
370
-1
  6
ByLayer
 10
9.3647067671262718
 20
-12.5740031489452662
 30
0.0
 11
11.5492464276776019
 21
-19.3843808134348023
 31
0.0
  0
LINE
  5
81
100
AcDbEntity
100
AcDbLine
  8
limit
 62
256
370
-1
  6
ByLayer
 10
38.5959334468131416
 20
-36.2833822750080373
 30
0.0
 11
39.7043364446369296
 21
-4.8544482169527861
 31
0.0
  0
LINE
  5
82
100
AcDbEntity
100
AcDbLine
  8
limit
 62
256
370
-1
  6
ByLayer
 10
-5.6142066366732593
 20
-36.3685142557675718
 30
0.0
 11
36.7791649987988691
 21
-1.3134512035698691
 31
0.0
  0
LINE
  5
83
100
AcDbEntity
100
AcDbLine
  8
limit
 62
256
370
-1
  6
ByLayer
 10
39.7043364446369296
 20
-4.8544482169527861
 30
0.0
 11
36.7791649987988691
 21
-1.3134512035698691
 31
0.0
  0
LINE
  5
84
100
AcDbEntity
100
AcDbLine
  8
limit
 62
256
370
-1
  6
ByLayer
 10
45.85596313039904
 20
-42.0728913960220865
 30
0.0
 11
38.5959334468131416
 21
-36.2833822750080373
 31
0.0
  0
ARC
  5
85
100
AcDbEntity
  8
limit
 62
256
370
-1
  6
ByLayer
100
AcDbCircle
 10
8.9261716372031472
 20
-64.5477499814262359
 30
0.0
 40
9.8972892029243518
100
AcDbArc
 50
197.7197566784652167
 51
290.3651560015063069
  0
LINE
  5
86
100
AcDbEntity
100
AcDbLine
  8
limit
 62
256
370
-1
  6
ByLayer
 10
-5.6142066366732593
 20
-36.3685142557675718
 30
0.0
 11
-0.5015563985305107
 21
-67.5601041522641594
 31
0.0
  0
LINE
  5
87
100
AcDbEntity
100
AcDbLine
  8
limit
 62
256
370
-1
  6
ByLayer
 10
12.3704478951474641
 20
-73.8263972225537941
 30
0.0
 11
40.8523803940970751
 21
-59.3929854832212101
 31
0.0
  0
CIRCLE
  5
88
100
AcDbEntity
100
AcDbCircle
  8
big_hole
 62
256
370
-1
  6
ByLayer
 10
-8.0259829018494528
 20
-26.6224377121773514
 30
0.0
 40
5.0
  0
LINE
  5
89
100
AcDbEntity
100
AcDbLine
  8
axis2
 62
256
370
-1
  6
ByLayer
 10
-13.0013496539266526
 20
-26.1267304575151265
 30
0.0
 11
-3.0469610221118231
 21
-27.079975821075351
 31
0.0
  0
LINE
  5
8A
100
AcDbEntity
100
AcDbLine
  8
axis2
 62
256
370
-1
  6
ByLayer
 10
-8.2908535806353569
 20
-31.8349350236308553
 30
0.0
 11
-7.3177194749744601
 21
-21.6728556168736191
 31
0.0
  0
CIRCLE
  5
8B
100
AcDbEntity
100
AcDbCircle
  8
small_hole
 62
256
370
-1
  6
ByLayer
 10
-7.8248622046844858
 20
-26.6224377121773514
 30
0.0
 40
3.0
  0
LINE
  5
8C
100
AcDbEntity
100
AcDbLine
  8
m5
 62
256
370
-1
  6
ByLayer
 10
14.8278574433887513
 20
-62.0649099788323539
 30
0.0
 11
10.8278574433887513
 21
-59.7555089020738563
 31
0.0
  0
LINE
  5
8D
100
AcDbEntity
100
AcDbLine
  8
m5
 62
256
370
-1
  6
ByLayer
 10
10.8278574433887513
 20
-68.9931132091078609
 30
0.0
 11
14.8278574433887513
 21
-66.6837121323493704
 31
0.0
  0
LINE
  5
8E
100
AcDbEntity
100
AcDbLine
  8
m5
 62
256
370
-1
  6
ByLayer
 10
14.8278574433887513
 20
-62.0649099788323539
 30
0.0
 11
14.8278574433887513
 21
-66.6837121323493704
 31
0.0
  0
LINE
  5
8F
100
AcDbEntity
100
AcDbLine
  8
m5
 62
256
370
-1
  6
ByLayer
 10
10.8278574433887513
 20
-68.9931132091078609
 30
0.0
 11
6.8278574433887513
 21
-66.6837121323493704
 31
0.0
  0
LINE
  5
90
100
AcDbEntity
100
AcDbLine
  8
m5
 62
256
370
-1
  6
ByLayer
 10
6.8278574433887513
 20
-62.0649099788323539
 30
0.0
 11
10.8278574433887513
 21
-59.7555089020738563
 31
0.0
  0
LINE
  5
91
100
AcDbEntity
100
AcDbLine
  8
m5
 62
256
370
-1
  6
ByLayer
 10
6.8278574433887513
 20
-62.0649099788323539
 30
0.0
 11
6.8278574433887513
 21
-66.6837121323493704
 31
0.0
  0
CIRCLE
  5
92
100
AcDbEntity
100
AcDbCircle
  8
axis_m5
 62
256
370
-1
  6
ByLayer
 10
10.8278574433887513
 20
-64.3743110555908515
 30
0.0
 40
2.5
  0
LINE
  5
93
100
AcDbEntity
100
AcDbLine
  8
axis_m5
 62
256
370
-1
  6
ByLayer
 10
5.015771688721216
 20
-64.3743110555908515
 30
0.0
 11
16.0411164689292747
 21
-64.3743110555908515
 31
0.0
  0
LINE
  5
94
100
AcDbEntity
100
AcDbLine
  8
axis_m5
 62
256
370
-1
  6
ByLayer
 10
10.8278574433887513
 20
-69.643308009854934
 30
0.0
 11
10.8278574433887513
 21
-58.7382631449094461
 31
0.0
  0
LINE
  5
95
100
AcDbEntity
100
AcDbLine
  8
limit
 62
256
370
-1
  6
ByLayer
 10
40.8523803940970751
 20
-59.3929854832212101
 30
0.0
 11
45.85596313039904
 21
-42.0728913960220865
 31
0.0
  0
ARC
  5
96
100
AcDbEntity
  8
turnhole
 62
256
370
-1
  6
ByLayer
100
AcDbCircle
 10
-0.5258010987575421
 20
1.3608071080674655
 30
0.0
 40
32.2601799148808226
100
AcDbArc
 50
246.45757216651009
 51
254.6727333679143896
  0
ARC
  5
97
100
AcDbEntity
  8
turnhole
 62
256
370
-1
  6
ByLayer
100
AcDbCircle
 10
-0.5232744612727135
 20
1.3607913173187984
 30
0.0
 40
26.2608326558082901
100
AcDbArc
 50
247.2631839267169767
 51
254.6678515330753783
  0
ARC
  5
98
100
AcDbEntity
  8
turnhole
 62
256
370
-1
  6
ByLayer
100
AcDbCircle
 10
-8.2601062251265454
 20
-26.8586658312815665
 30
0.0
 40
3.0
100
AcDbArc
 50
254.6707909128859058
 51
74.6707909169947044
  0
ARC
  5
99
100
AcDbEntity
  8
turnhole
 62
256
370
-1
  6
ByLayer
100
AcDbCircle
 10
-15.5987644392385789
 20
-23.7180135245120169
 30
0.0
 40
5.0000000000000018
100
AcDbArc
 50
9.8890403190013618
 51
295.9424748128291185
  0
ARC
  5
9A
100
AcDbEntity
  8
turnhole
 62
256
370
-1
  6
ByLayer
100
AcDbCircle
 10
-0.6167538591096787
 20
-0.2382976763634503
 30
0.0
 40
26.2608317693784308
100
AcDbArc
 50
111.2117541464854753
 51
118.6159866783326322
  0
ARC
  5
9B
100
AcDbEntity
  8
turnhole
 62
256
370
-1
  6
ByLayer
100
AcDbCircle
 10
-0.6192037297706902
 20
-0.2388922602473122
 30
0.0
 40
32.2601804999310389
100
AcDbArc
 50
110.3964685321355006
 51
118.6111159606604986
  0
ARC
  5
9C
100
AcDbEntity
  8
turnhole
 62
256
370
-1
  6
ByLayer
100
AcDbCircle
 10
-14.630708633890567
 20
25.448378776613783
 30
0.0
 40
3.0
100
AcDbArc
 50
118.608779872920465
 51
298.6183175898011655
  0
ARC
  5
9D
100
AcDbEntity
  8
turnhole
 62
256
370
-1
  6
ByLayer
100
AcDbCircle
 10
-7.1671825803555089
 20
28.2795234468441734
 30
0.0
 40
4.9999999999999982
100
AcDbArc
 50
233.8265855252050756
 51
159.8894444092378251
  0
ARC
  5
9E
100
AcDbEntity
  8
turnhole
 62
256
370
-1
  6
ByLayer
100
AcDbCircle
 10
-0.0596920024307032
 20
2.4735555181292908
 30
0.0
 40
32.2596368922625061
100
AcDbArc
 50
28.1372858432950359
 51
36.5170087648003587
  0
ARC
  5
9F
100
AcDbEntity
  8
turnhole
 62
256
370
-1
  6
ByLayer
100
AcDbCircle
 10
-0.0594305804659511
 20
2.4750779575195274
 30
0.0
 40
26.2615008358196249
100
AcDbArc
 50
28.9454103546826467
 51
36.5532550106914442
  0
ARC
  5
A0
100
AcDbEntity
  8
turnhole
 62
256
370
-1
  6
ByLayer
100
AcDbCircle
 10
23.5073722559581313
 20
19.8170819176939901
 30
0.0
 40
3.0
100
AcDbArc
 50
38.1444373129120251
 51
214.5517229535612955
  0
ARC
  5
A1
100
AcDbEntity
  8
turnhole
 62
256
370
-1
  6
ByLayer
100
AcDbCircle
 10
27.3174289355478379
 20
12.802591958054391
 30
0.0
 40
5.0
100
AcDbArc
 50
151.5439243775004456
 51
77.6422267022463757
  0
CIRCLE
  5
A2
100
AcDbEntity
100
AcDbCircle
  8
attachement
 62
256
370
-1
  6
ByLayer
 10
16.7810300021862311
 20
4.0620119167496078
 30
0.0
 40
2.0
  0
CIRCLE
  5
A3
100
AcDbEntity
100
AcDbCircle
  8
attachement
 62
256
370
-1
  6
ByLayer
 10
-10.7401698733862681
 20
14.5159369512300049
 30
0.0
 40
2.0
  0
CIRCLE
  5
A4
100
AcDbEntity
100
AcDbCircle
  8
attachement
 62
256
370
-1
  6
ByLayer
 10
-6.154498932632813
 20
-14.5177512371231039
 30
0.0
 40
2.0
  0
CIRCLE
  5
A5
100
AcDbEntity
100
AcDbCircle
  8
image
 62
256
370
-1
  6
ByLayer
 10
16.7705898361288313
 20
3.6404236464292254
 30
0.0
 40
3.5762352450119788
  0
CIRCLE
  5
A6
100
AcDbEntity
100
AcDbCircle
  8
image
 62
256
370
-1
  6
ByLayer
 10
-10.393545229487982
 20
12.4558417533104695
 30
0.0
 40
3.5179720821071188
  0
CIRCLE
  5
A7
100
AcDbEntity
100
AcDbCircle
  8
image
 62
256
370
-1
  6
ByLayer
 10
-5.2728945228128579
 20
-15.6438755127554536
 30
0.0
 40
3.4445963460617444
  0
CIRCLE
  5
A8
100
AcDbEntity
100
AcDbCircle
  8
attachement
 62
256
370
-1
  6
ByLayer
 10
-16.2648008558295913
 20
-0.6609147296950529
 30
0.0
 40
3.0
  0
LINE
  5
A9
100
AcDbEntity
100
AcDbLine
  8
attachementm5
 62
256
370
-1
  6
ByLayer
 10
-15.9426095046784759
 20
3.9466362539161586
 30
0.0
 11
-12.1134489792147413
 21
1.3638348671340417
 31
0.0
  0
LINE
  5
AA
100
AcDbEntity
100
AcDbLine
  8
attachementm5
 62
256
370
-1
  6
ByLayer
 10
-20.4161527324444414
 20
-2.6856643265241611
 30
0.0
 11
-20.0939613812933366
 21
1.921886657087057
 31
0.0
  0
LINE
  5
AB
100
AcDbEntity
100
AcDbLine
  8
attachementm5
 62
256
370
-1
  6
ByLayer
 10
-15.9426095046784759
 20
3.9466362539161586
 30
0.0
 11
-20.0939613812933366
 21
1.921886657087057
 31
0.0
  0
LINE
  5
AC
100
AcDbEntity
100
AcDbLine
  8
attachementm5
 62
256
370
-1
  6
ByLayer
 10
-20.4161527324444414
 20
-2.6856643265241611
 30
0.0
 11
-16.5869922069807174
 21
-5.2684657133062798
 31
0.0
  0
LINE
  5
AD
100
AcDbEntity
100
AcDbLine
  8
attachementm5
 62
256
370
-1
  6
ByLayer
 10
-12.4356403303658531
 20
-3.2437161164771671
 30
0.0
 11
-12.1134489792147413
 21
1.3638348671340417
 31
0.0
  0
LINE
  5
AE
100
AcDbEntity
100
AcDbLine
  8
attachementm5
 62
256
370
-1
  6
ByLayer
 10
-12.4356403303658531
 20
-3.2437161164771671
 30
0.0
 11
-16.5869922069807174
 21
-5.2684657133062798
 31
0.0
  0
CIRCLE
  5
AF
100
AcDbEntity
100
AcDbCircle
  8
attachement
 62
256
370
-1
  6
ByLayer
 10
12.6549609529253626
 20
-9.7659294559099763
 30
0.0
 40
3.0
  0
LINE
  5
B0
100
AcDbEntity
100
AcDbLine
  8
attachementm5
 62
256
370
-1
  6
ByLayer
 10
12.9771523040764851
 20
-5.158378472298752
 30
0.0
 11
16.806312829540218
 21
-7.7411798590808658
 31
0.0
  0
LINE
  5
B1
100
AcDbEntity
100
AcDbLine
  8
attachementm5
 62
256
370
-1
  6
ByLayer
 10
12.9771523040764851
 20
-5.158378472298752
 30
0.0
 11
8.8258004274616226
 21
-7.1831280691278661
 31
0.0
  0
LINE
  5
B2
100
AcDbEntity
100
AcDbLine
  8
attachementm5
 62
256
370
-1
  6
ByLayer
 10
16.4841214783891097
 20
-12.348730842692083
 30
0.0
 11
16.806312829540218
 21
-7.7411798590808658
 31
0.0
  0
LINE
  5
B3
100
AcDbEntity
100
AcDbLine
  8
attachementm5
 62
256
370
-1
  6
ByLayer
 10
8.1814177251593634
 20
-16.3982300363503199
 30
0.0
 11
8.8258004274616226
 21
-7.1831280691278661
 31
0.0
  0
LINE
  5
B4
100
AcDbEntity
100
AcDbLine
  8
attachementm5
 62
256
370
-1
  6
ByLayer
 10
16.4841214783891097
 20
-12.348730842692083
 30
0.0
 11
8.1814177251593634
 21
-16.3982300363503199
 31
0.0
  0
ARC
  5
B5
100
AcDbEntity
  8
attachement
 62
256
370
-1
  6
ByLayer
100
AcDbCircle
 10
5.7349139635528861
 20
15.9580214637993354
 30
0.0
 40
6.3887579751756274
100
AcDbArc
 50
63.4349488229220597
 51
47.5448043798132218
  0
LINE
  5
B6
100
AcDbEntity
100
AcDbLine
  8
attachement
 62
256
370
-1
  6
ByLayer
 10
21.7218084634191868
 20
35.7472465979851108
 30
0.0
 11
8.5920533884102053
 21
21.6723003135139862
 31
0.0
  0
LINE
  5
B7
100
AcDbEntity
100
AcDbLine
  8
attachement
 62
256
370
-1
  6
ByLayer
 10
10.0474116027110778
 20
20.6716816740420306
 30
0.0
 11
23.1761887153408033
 21
34.8382589405340966
 31
0.0
  0
LINE
  5
B8
100
AcDbEntity
100
AcDbLine
  8
attachement
 62
256
370
-1
  6
ByLayer
 10
21.7218084634191868
 20
35.7472465979851108
 30
0.0
 11
23.1761887153408068
 21
34.8382589405340966
 31
0.0
  0
ENDSEC
  0
SECTION
  2
OBJECTS
  0
DICTIONARY
  5
C
100
AcDbDictionary
280
0
281
1
  3
ACAD_GROUP
350
D
  3
ACAD_LAYOUT
350
1A
  3
ACAD_MLINESTYLE
350
17
  3
ACAD_PLOTSETTINGS
350
19
  3
ACAD_PLOTSTYLENAME
350
E
  3
AcDbVariableDictionary
350
B9
  0
DICTIONARY
  5
D
100
AcDbDictionary
280
0
281
1
  0
ACDBDICTIONARYWDFLT
  5
E
100
AcDbDictionary
281
1
  3
Normal
350
F
100
AcDbDictionaryWithDefault
340
F
  0
ACDBPLACEHOLDER
  5
F
  0
DICTIONARY
  5
17
100
AcDbDictionary
280
0
281
1
  3
Standard
350
18
  0
MLINESTYLE
  5
18
100
AcDbMlineStyle
  2
STANDARD
 70
0
  3

 62
256
 51
90.0
 52
90.0
 71
2
 49
0.5
 62
256
  6
BYLAYER
 49
-0.5
 62
256
  6
BYLAYER
  0
DICTIONARY
  5
19
100
AcDbDictionary
280
0
281
1
  0
DICTIONARY
  5
1A
100
AcDbDictionary
281
1
  3
Layout1
350
1E
  3
Layout2
350
26
  3
Model
350
22
  0
LAYOUT
  5
1E
100
AcDbPlotSettings
  1

  2
C:\Program Files\AutoCAD 2002\plotters\DWF ePlot (optimized for plotting).pc3
  4

  6

 40
0.0
 41
0.0
 42
0.0
 43
0.0
 44
0.0
 45
0.0
 46
0.0
 47
0.0
 48
0.0
 49
0.0
140
0.0
141
0.0
142
1.0
143
1.0
 70
688
 72
0
 73
0
 74
5
  7

 75
16
147
1.0
148
0.0
149
0.0
100
AcDbLayout
  1
Layout1
 70
1
 71
1
 10
0.0
 20
0.0
 11
420.0
 21
297.0
 12
0.0
 22
0.0
 32
0.0
 14
100000000000000000000.0
 24
100000000000000000000.0
 34
100000000000000000000.0
 15
-100000000000000000000.0
 25
-100000000000000000000.0
 35
-100000000000000000000.0
146
0.0
 13
0.0
 23
0.0
 33
0.0
 16
1.0
 26
0.0
 36
0.0
 17
0.0
 27
1.0
 37
0.0
 76
0
330
1B
  0
LAYOUT
  5
22
100
AcDbPlotSettings
  1

  2
C:\Program Files\AutoCAD 2002\plotters\DWF ePlot (optimized for plotting).pc3
  4

  6

 40
0.0
 41
0.0
 42
0.0
 43
0.0
 44
0.0
 45
0.0
 46
0.0
 47
0.0
 48
0.0
 49
0.0
140
0.0
141
0.0
142
1.0
143
1.0
 70
1712
 72
0
 73
0
 74
0
  7

 75
0
147
1.0
148
0.0
149
0.0
100
AcDbLayout
  1
Model
 70
1
 71
0
 10
0.0
 20
0.0
 11
12.0
 21
9.0
 12
0.0
 22
0.0
 32
0.0
 14
0.0
 24
0.0
 34
0.0
 15
0.0
 25
0.0
 35
0.0
146
0.0
 13
0.0
 23
0.0
 33
0.0
 16
1.0
 26
0.0
 36
0.0
 17
0.0
 27
1.0
 37
0.0
 76
0
330
1F
  0
LAYOUT
  5
26
100
AcDbPlotSettings
  1

  2
C:\Program Files\AutoCAD 2002\plotters\DWF ePlot (optimized for plotting).pc3
  4

  6

 40
0.0
 41
0.0
 42
0.0
 43
0.0
 44
0.0
 45
0.0
 46
0.0
 47
0.0
 48
0.0
 49
0.0
140
0.0
141
0.0
142
1.0
143
1.0
 70
688
 72
0
 73
0
 74
5
  7

 75
16
147
1.0
148
0.0
149
0.0
100
AcDbLayout
  1
Layout2
 70
1
 71
2
 10
0.0
 20
0.0
 11
12.0
 21
9.0
 12
0.0
 22
0.0
 32
0.0
 14
0.0
 24
0.0
 34
0.0
 15
0.0
 25
0.0
 35
0.0
146
0.0
 13
0.0
 23
0.0
 33
0.0
 16
1.0
 26
0.0
 36
0.0
 17
0.0
 27
1.0
 37
0.0
 76
0
330
23
  0
DICTIONARY
  5
B9
100
AcDbDictionary
281
1
  3
DIMASSOC
350
BB
  3
HIDETEXT
350
BA
  0
DICTIONARYVAR
  5
BA
100
DictionaryVariables
280
0
  1
2
  0
DICTIONARYVAR
  5
BB
100
DictionaryVariables
280
0
  1
1
  0
IMAGEDEF
  5
58
100
AcDbRasterImageDef
 90
0
  1
/mnt/dat/dropbox/reprap/modellek/arcol_extruder/extruder_skirt_k.jpg
 10
480.0
 20
360.0
 11
1.0
 21
1.0
280
1
281
0
  0
ENDSEC
  0
EOF
